<svg width="64" height="64" xmlns="http://www.w3.org/2000/svg"><path fill="none" d="M-1-1h66v66H-1z"/><g stroke="null"><path fill="#e74c3c" d="M30.39 8.853c-9.279 0-16.801 8.085-16.801 18.06 0 3.207.801 6.207 2.166 8.816.226.434.464.86.722 1.271L30.39 63.03 44.304 37c.214-.34.4-.702.59-1.058l.133-.213a19.006 19.006 0 0 0 2.165-8.817c0-9.974-7.523-18.059-16.802-18.059zm0 9.03c4.64 0 8.401 4.042 8.401 9.03 0 4.986-3.761 9.029-8.4 9.029-4.64 0-8.401-4.043-8.401-9.03 0-4.987 3.76-9.03 8.4-9.03z"/><path fill="#c0392b" d="M30.58 17.811c-4.405 0-8.699 3.525-8.757 8.743-.058 5.217 3.565 9.49 8.757 9.43 5.192-.06 8.449-4.202 8.505-9.251.056-5.049-4.101-8.922-8.505-8.922z"/><path stroke-linecap="null" stroke-linejoin="null" stroke-opacity="null" fill="none" d="M29.638 6.561v-.045"/></g></svg>